# xmcd
#
# Track frame offsets: 
#        150
#        18008
#        32121
#        54648
#        77059
#        96101
#        109171
#        126791
#        141483
#        159568
#        180097
#        203698
#        222619
#        240647
#        261177
#
# Disc length: 3703 seconds
#
# Revision: 0
# Processed by: cddbd v1.5.2PL0 Copyright (c) Steve Scherf et al.
# Submitted via: ExactAudioCopyFreeDBPlugin 1.0
#
DISCID=cc0e750f
DTITLE=Peter Bruntnell Trio - Live In Firth
DYEAR=2017
DGENRE=Americana
TTITLE0=Clothes of Winter
TTITLE1=Sea of Japan
TTITLE2=The Streamer Song
TTITLE3=John
TTITLE4=Here Come The Swells
TTITLE5=One Drink Away
TTITLE6=False Start
TTITLE7=End of the World
TTITLE8=Have You Seen That Girl Again?
TTITLE9=Long Way From Home
TTITLE10=Cold Water Swimmer
TTITLE11=By The Time My Head Gets To Phoenix
TTITLE12=St. Christopher
TTITLE13=Widow's Walk
TTITLE14=Another Day
EXTD=
EXTT0=
EXTT1=
EXTT2=
EXTT3=
EXTT4=
EXTT5=
EXTT6=
EXTT7=
EXTT8=
EXTT9=
EXTT10=
EXTT11=
EXTT12=
EXTT13=
EXTT14=
PLAYORDER=
